<?xml version="1.0" encoding="UTF-8" standalone="no"?>
<!-- Created with Inkscape (http://www.inkscape.org/) -->

<svg
   width="591.99951"
   height="592"
   viewBox="0 0 156.6332 156.63333"
   version="1.1"
   id="svg8"
   sodipodi:docname="icon_help.svg"
   inkscape:version="1.1.2 (0a00cf5339, 2022-02-04)"
   xmlns:inkscape="http://www.inkscape.org/namespaces/inkscape"
   xmlns:sodipodi="http://sodipodi.sourceforge.net/DTD/sodipodi-0.dtd"
   xmlns="http://www.w3.org/2000/svg"
   xmlns:svg="http://www.w3.org/2000/svg"
   xmlns:rdf="http://www.w3.org/1999/02/22-rdf-syntax-ns#"
   xmlns:cc="http://creativecommons.org/ns#"
   xmlns:dc="http://purl.org/dc/elements/1.1/">
  <defs
     id="defs2">
    <clipPath
       clipPathUnits="userSpaceOnUse"
       id="clipPath35455">
      <rect
         style="fill:#a7ebff;fill-opacity:1;stroke:#86e7ff;stroke-width:2.11667;stroke-miterlimit:4;stroke-dasharray:none;stroke-opacity:1;paint-order:normal;stop-color:#000000"
         id="rect35457"
         width="66.145828"
         height="39.6875"
         x="162.05757"
         y="-21.198959"
         rx="5"
         ry="5" />
    </clipPath>
    <clipPath
       clipPathUnits="userSpaceOnUse"
       id="clipPath72341">
      <circle
         style="fill:#6a50a8;fill-opacity:1;stroke-width:0.529169;paint-order:markers stroke fill;stop-color:#000000"
         id="circle72343"
         cx="244.65239"
         cy="-6.6885161"
         r="55.940475" />
    </clipPath>
    <clipPath
       clipPathUnits="userSpaceOnUse"
       id="clipPath138273">
      <rect
         style="opacity:1;fill:#a7ebff;fill-opacity:1;stroke:none;stroke-width:2.11667;stroke-miterlimit:4;stroke-dasharray:none;stroke-opacity:1;paint-order:normal;stop-color:#000000"
         id="rect138275"
         width="77.674103"
         height="48.758926"
         x="231.41212"
         y="-45.965614"
         rx="4.9999995"
         ry="5" />
    </clipPath>
    <clipPath
       clipPathUnits="userSpaceOnUse"
       id="clipPath144651">
      <circle
         style="fill:#5d4cac;fill-opacity:1;stroke-width:0.529169;paint-order:markers stroke fill;stop-color:#000000"
         id="circle144653"
         cx="244.65239"
         cy="-6.6885161"
         r="55.940475" />
    </clipPath>
  </defs>
  <sodipodi:namedview
     id="base"
     pagecolor="#ffffff"
     bordercolor="#666666"
     borderopacity="1.0"
     inkscape:pageopacity="0.0"
     inkscape:pageshadow="2"
     inkscape:zoom="0.98994949"
     inkscape:cx="327.28943"
     inkscape:cy="308.6016"
     inkscape:document-units="px"
     inkscape:current-layer="layer1"
     showgrid="false"
     inkscape:window-width="2560"
     inkscape:window-height="1390"
     inkscape:window-x="0"
     inkscape:window-y="0"
     inkscape:window-maximized="1"
     units="px"
     inkscape:pagecheckerboard="0"
     inkscape:snap-center="true"
     inkscape:snap-global="true"
     inkscape:snap-intersection-paths="true"
     showguides="false"
     inkscape:guide-bbox="true"
     fit-margin-top="40"
     fit-margin-left="40"
     fit-margin-right="40"
     fit-margin-bottom="40" />
  <metadata
     id="metadata5">
    <rdf:RDF>
      <cc:Work
         rdf:about="">
        <dc:format>image/svg+xml</dc:format>
        <dc:type
           rdf:resource="http://purl.org/dc/dcmitype/StillImage" />
      </cc:Work>
    </rdf:RDF>
  </metadata>
  <g
     inkscape:label="Layer 1"
     inkscape:groupmode="layer"
     id="layer1">
    <ellipse
       style="fill:#45339b;fill-opacity:1;stroke-width:0.529167;paint-order:markers stroke fill;stop-color:#000000"
       id="bg"
       cx="78.450241"
       cy="78.316666"
       rx="67.733269"
       ry="67.73333" />
    <path
       style="color:#000000;fill:#eed5c7;fill-opacity:1;fill-rule:evenodd;stroke-width:0.825893;stroke-linecap:round;stroke-linejoin:round;-inkscape-stroke:none"
       d="M 231.81082,-24.452599 C 226.14929,-24.797727 214.68673,-2.2659122 211.61133,2.5 c -2.6651,4.215039 -5.36756,8.405517 -8.09725,12.578062 -0.99444,1.520071 -1.99249,3.037764 -2.99366,4.553397 -8.57549,12.982059 -17.38021,25.813093 -26.10636,38.694713 -4.9169,7.259469 -3.01757,17.1304 4.24219,22.046875 7.25947,4.916898 17.1304,3.017566 22.04687,-4.242188 12.8097,-18.633269 25.33874,-37.431501 37.5879,-56.417968 4.86319,-16.7592286 6.43065,-43.378441 -6.4802,-44.16549 z"
       id="path37104"
       sodipodi:nodetypes="scssccccs"
       clip-path="url(#clipPath144651)"
       transform="matrix(1.2108097,0,0,1.2108108,-218.04452,86.41519)" />
    <path
       id="path61496"
       style="font-variation-settings:normal;opacity:1;vector-effect:none;fill:#eed5c7;fill-opacity:1;fill-rule:evenodd;stroke:#eed5c7;stroke-width:15.8749;stroke-linecap:round;stroke-linejoin:miter;stroke-miterlimit:4;stroke-dasharray:none;stroke-dashoffset:0;stroke-opacity:1;-inkscape-stroke:none;stop-color:#000000;stop-opacity:1"
       d="m 37.253093,99.327422 c 1.16787,8.783958 6.47822,17.966418 18.36143,17.183038 m 27.8315,-52.152356 -10.80034,6.23558 m 5.95869,-24.304921 4.84165,18.069341 m -28.93409,-11.613787 24.09244,-6.455554 m -41.35128,53.038656 c -0.52895,-5.387802 3.22747,-15.159044 7.74179,-25.40366 3.21224,-7.28971 6.80821,-14.819099 9.51705,-21.179442"
       sodipodi:nodetypes="cccccccccsc" />
    <path
       style="font-variation-settings:normal;opacity:1;vector-effect:none;fill:#e8c7b3;fill-opacity:1;fill-rule:evenodd;stroke:none;stroke-width:1.32292;stroke-linecap:butt;stroke-linejoin:miter;stroke-miterlimit:4;stroke-dasharray:none;stroke-dashoffset:0;stroke-opacity:1;-inkscape-stroke:none;stop-color:#000000;stop-opacity:1"
       d="m 66.160623,58.161163 c -6.74231,-0.461501 -13.95855,16.475674 -13.95855,16.475674 -1.81623,8.36888 -1.15503,13.901645 8.009,15.560363 l 12.58557,-16.475678 c 0,0 -0.81164,-15.16169 -6.63602,-15.560359 z"
       id="path127570"
       sodipodi:nodetypes="scccs" />
    <rect
       style="opacity:1;fill:#a7ebff;fill-opacity:1;stroke:none;stroke-width:2.11667;stroke-miterlimit:4;stroke-dasharray:none;stroke-opacity:1;paint-order:normal;stop-color:#000000"
       id="rect60801"
       width="94.048561"
       height="59.037834"
       x="61.921955"
       y="30.759521"
       rx="5"
       ry="5.0000005" />
    <path
       d="m 93.257853,52.518946 q 0.0678,-7.793375 4.33718,-12.13056 4.269417,-4.337182 11.859477,-4.337182 7.18346,0 11.1818,3.185119 3.99833,3.11735 3.99833,8.877672 0,3.59173 -1.62645,5.963626 -1.62643,2.304129 -4.74377,5.082637 -2.64298,2.371897 -3.93058,4.133878 -1.2876,1.694212 -1.2876,4.066109 h -10.16525 q 0,-3.930572 1.42313,-6.2347 1.42314,-2.371898 3.99833,-4.811563 1.82975,-1.761981 2.64298,-2.981815 0.88099,-1.2876 0.88099,-2.981813 0,-1.829748 -0.88099,-2.64297 -0.881,-0.880991 -2.77851,-0.880991 -2.16859,0 -3.25289,1.423138 -1.08429,1.35537 -1.15205,4.269415 z m 14.434677,19.24625 q 2.84627,0 4.60826,1.761981 1.82974,1.761981 1.82974,4.540488 0,2.846277 -1.82974,4.676026 -1.76199,1.761981 -4.60826,1.761981 -2.7785,0 -4.60824,-1.761981 -1.76198,-1.829749 -1.76198,-4.676026 0,-2.778507 1.76198,-4.540488 1.82974,-1.761981 4.60824,-1.761981 z"
       style="font-weight:800;font-size:87.8478px;line-height:1.25;font-family:Montserrat;-inkscape-font-specification:'Montserrat Ultra-Bold';text-align:center;letter-spacing:0px;word-spacing:0px;text-anchor:middle;fill:#1ccdff;stroke-width:0.264583px"
       id="question"
       class="question" />
    <path
       style="font-variation-settings:normal;opacity:1;fill:none;fill-opacity:1;fill-rule:evenodd;stroke:#eed5c7;stroke-width:15.8749;stroke-linecap:round;stroke-linejoin:miter;stroke-miterlimit:4;stroke-dasharray:none;stroke-dashoffset:0;stroke-opacity:1;stop-color:#000000;stop-opacity:1"
       d="M 60.850603,104.14705 72.989433,88.203285 88.446293,77.064924"
       id="path53945"
       sodipodi:nodetypes="ccc" />
    <ellipse
       style="font-variation-settings:normal;fill:#eed5c7;fill-opacity:1;stroke:none;stroke-width:18.7266;stroke-linecap:round;stroke-linejoin:miter;stroke-miterlimit:4;stroke-dasharray:none;stroke-dashoffset:0;stroke-opacity:1;paint-order:normal;stop-color:#000000"
       id="path63797"
       ry="14.516114"
       rx="17.734566"
       cy="128.2307"
       cx="27.724602"
       transform="matrix(0.87558971,-0.48305555,0.29045368,0.95688905,0,0)" />
    <path
       d="m 107.104,41.581157 9.88052,1.875978 -1.77827,9.365911 -4.40991,13.398126 -6.22679,-1.182257 0.75618,-14.091847 z m -0.33658,27.607191 q 2.16137,0.41037 3.24531,2.002397 1.13541,1.601796 0.73481,3.711698 -0.41037,2.161364 -2.06362,3.287004 -1.59203,1.083949 -3.7534,0.673579 -2.1099,-0.4006 -3.24531,-2.002397 -1.07418,-1.643487 -0.66381,-3.804852 0.4006,-2.109902 1.99263,-3.19385 1.64348,-1.074179 3.75339,-0.673579 z"
       style="font-weight:800;font-size:52.3804px;line-height:1.25;font-family:Montserrat;-inkscape-font-specification:'Montserrat Ultra-Bold';text-align:center;letter-spacing:0px;word-spacing:0px;text-anchor:middle;opacity:1;fill:#1ccdff;stroke-width:0.264583px;fill-opacity:0.01"
       id="exclamation"
       class="exclamation" />
  </g>
</svg>
