<?xml version="1.0" encoding="UTF-8" standalone="no"?>
<svg
   width="591.99951"
   height="592"
   viewBox="0 0 156.6332 156.63333"
   version="1.1"
   sodipodi:docname="icon_team_development.svg"
   inkscape:version="1.3.2 (091e20e, 2023-11-25)"
   id="svg893"
   xmlns:inkscape="http://www.inkscape.org/namespaces/inkscape"
   xmlns:sodipodi="http://sodipodi.sourceforge.net/DTD/sodipodi-0.dtd"
   xmlns="http://www.w3.org/2000/svg"
   xmlns:svg="http://www.w3.org/2000/svg"
   xmlns:rdf="http://www.w3.org/1999/02/22-rdf-syntax-ns#"
   xmlns:cc="http://creativecommons.org/ns#"
   xmlns:dc="http://purl.org/dc/elements/1.1/">
  <defs
     id="defs879" />
  <sodipodi:namedview
     pagecolor="#ffffff"
     bordercolor="#666666"
     borderopacity="1.0"
     inkscape:pageopacity="0.0"
     inkscape:pageshadow="2"
     inkscape:zoom="1.4"
     inkscape:cx="176.78571"
     inkscape:cy="421.78572"
     inkscape:document-units="px"
     showgrid="false"
     inkscape:window-width="2560"
     inkscape:window-height="1389"
     inkscape:window-x="0"
     inkscape:window-y="0"
     inkscape:window-maximized="1"
     units="px"
     inkscape:pagecheckerboard="0"
     inkscape:snap-center="true"
     inkscape:snap-global="true"
     inkscape:snap-intersection-paths="true"
     showguides="false"
     inkscape:guide-bbox="true"
     fit-margin-top="40"
     fit-margin-left="40"
     fit-margin-right="40"
     fit-margin-bottom="40"
     id="namedview881"
     lock-margins="false"
     inkscape:current-layer="svg893"
     inkscape:object-paths="false"
     inkscape:object-nodes="true"
     inkscape:snap-bbox="true"
     inkscape:snap-smooth-nodes="true"
     inkscape:showpageshadow="2"
     inkscape:deskcolor="#d1d1d1"
     labelstyle="default">
    <sodipodi:guide
       position="78.694415,68.631707"
       orientation="1,0"
       id="guide1489"
       inkscape:locked="false" />
    <sodipodi:guide
       position="77.636078,70.748375"
       orientation="0,-1"
       id="guide6030"
       inkscape:locked="false" />
  </sodipodi:namedview>
  <metadata
     id="metadata883">
    <rdf:RDF>
      <cc:Work
         rdf:about="">
        <dc:format>image/svg+xml</dc:format>
        <dc:type
           rdf:resource="http://purl.org/dc/dcmitype/StillImage" />
      </cc:Work>
    </rdf:RDF>
  </metadata>
  <g
     inkscape:label="base"
     inkscape:groupmode="layer"
     id="g887">
    <circle
       style="fill:#5967cf;fill-opacity:1;stroke:none;stroke-width:0.529167;paint-order:markers stroke fill;stop-color:#000000"
       cx="78.316597"
       cy="78.316666"
       class="circle"
       id="ellipse885"
       r="67.73333" />
  </g>
  <g
     inkscape:groupmode="layer"
     id="layer1"
     inkscape:label="bug"
     style="display:inline"
     class="bug">
    <path
       id="path1247"
       style="fill:#1a1a1a;stroke-width:52.9212;stroke-linecap:round;stroke-linejoin:round;stop-color:#000000"
       d="M 106.95723,93.741535 A 30.355489,30.355489 0 0 1 69.779496,115.20609 30.355489,30.355489 0 0 1 48.314926,78.028373 30.355489,30.355489 0 0 1 85.492656,56.563804 30.355489,30.355489 0 0 1 106.95723,93.741535 Z" />
    <path
       id="path1545"
       style="fill:#1a1a1a;stroke-width:26.4606;stroke-linecap:round;stroke-linejoin:round;stop-color:#000000"
       d="m 99.468436,63.047774 a 15.177744,15.177744 0 0 1 -18.58887,10.732281 15.177744,15.177744 0 0 1 -10.73228,-18.588861 15.177744,15.177744 0 0 1 18.58886,-10.73229 15.177744,15.177744 0 0 1 10.73229,18.58887 z"
       inkscape:transform-center-x="-7.1717808"
       inkscape:transform-center-y="-26.765474" />
    <path
       style="font-variation-settings:normal;fill:none;fill-opacity:1;fill-rule:evenodd;stroke:#1a1a1a;stroke-width:2.64583;stroke-linecap:butt;stroke-linejoin:miter;stroke-miterlimit:4;stroke-dasharray:none;stroke-dashoffset:0;stroke-opacity:1;stop-color:#000000"
       d="m 85.559416,56.545758 -5.5967,-21.400137"
       id="path1582"
       inkscape:transform-center-x="-5.124985"
       inkscape:transform-center-y="-40.039265" />
    <path
       style="font-variation-settings:normal;fill:none;fill-opacity:1;fill-rule:evenodd;stroke:#1a1a1a;stroke-width:2.64583;stroke-linecap:butt;stroke-linejoin:miter;stroke-miterlimit:4;stroke-dasharray:none;stroke-dashoffset:0;stroke-opacity:1;stop-color:#000000"
       d="M 85.542946,56.650223 101.24511,41.071056"
       id="path3608"
       inkscape:transform-center-x="-15.75795"
       inkscape:transform-center-y="-37.024315" />
    <path
       id="path951"
       style="fill:#e187ff;fill-opacity:1;stroke-width:11.9062;stroke-linecap:round;stroke-linejoin:round;stop-color:#000000"
       d="M 60.385901,115.71174 C 49.820146,111.22684 42.44965,101.44586 41.050806,90.053215 39.651963,78.660552 44.437293,67.387023 53.604207,60.479258 62.77112,53.571493 75.456112,52.079049 86.021869,56.563945 L 72.939302,86.137798 Z"
       class="wing-left"
       inkscape:transform-center-x="14.48432"
       inkscape:transform-center-y="-1.0242598"
       sodipodi:nodetypes="cssccc" />
    <path
       id="path1223"
       style="fill:#e187ff;fill-opacity:1;stroke-width:11.9062;stroke-linecap:round;stroke-linejoin:round;stop-color:#000000"
       d="m 77.66182,120.34079 c 11.392663,1.39884 22.66618,-3.38649 29.57395,-12.5534 6.90777,-9.166901 8.40032,-21.322729 3.91542,-31.888487 C 106.66629,65.333146 96.885357,57.962649 85.492693,56.563807 l -3.915457,31.888498 z"
       inkscape:transform-center-x="-18.047565"
       inkscape:transform-center-y="2.6873421"
       class="wing-right"
       sodipodi:nodetypes="cssccc" />
    <path
       id="path3632"
       style="fill:#1a1a1a;stroke:#1a1a1a;stroke-width:2.64583;stroke-linecap:round;stroke-linejoin:round;stop-color:#000000"
       d="m 81.967237,35.145621 a 2.0045214,2.0045214 0 0 1 -2.004521,2.004522 2.0045214,2.0045214 0 0 1 -2.004521,-2.004522 2.0045214,2.0045214 0 0 1 2.004521,-2.004521 2.0045214,2.0045214 0 0 1 2.004521,2.004521 z"
       inkscape:transform-center-x="-2.326635"
       inkscape:transform-center-y="-50.739333" />
    <path
       id="circle3714"
       style="fill:#1a1a1a;stroke:#1a1a1a;stroke-width:2.64583;stroke-linecap:round;stroke-linejoin:round;stop-color:#000000"
       d="m 103.24963,41.071056 a 2.0045214,2.0045214 0 0 1 -2.00452,2.004521 2.0045214,2.0045214 0 0 1 -2.004514,-2.004521 2.0045214,2.0045214 0 0 1 2.004514,-2.004521 2.0045214,2.0045214 0 0 1 2.00452,2.004521 z"
       inkscape:transform-center-x="-23.609035"
       inkscape:transform-center-y="-44.813899" />
  </g>
</svg>
