<svg width="592" height="592" version="1.1" viewBox="0 0 156.63 156.63" xmlns="http://www.w3.org/2000/svg">
 <defs>
  <clipPath id="icon_community_a">
   <circle cx="244.65" cy="-6.6885" r="55.94" fill="#45339b" stop-color="#000000" stroke-width=".52917" style="paint-order:markers stroke fill"/>
  </clipPath>
 </defs>
 <g transform="translate(-183.59 63.158)">
  <circle cx="261.9" cy="15.159" r="67.733" fill="#45339b" stop-color="#000000" stroke-width=".64072" style="paint-order:markers stroke fill"/>
  <path d="m262.59 13.863-1.6586 20.493" fill="#eed5c7" fill-rule="evenodd" stop-color="#000000" stroke="#eed5c7" stroke-linecap="round" stroke-width="14.368" style="font-variation-settings:normal"/>
  <path d="m280.02 22.919-2.6898 16.081" fill="#eed5c7" fill-rule="evenodd" stop-color="#000000" stroke="#eed5c7" stroke-linecap="round" stroke-width="14.368" style="font-variation-settings:normal"/>
  <path d="m295.41 33.571-3.4297 15.94" fill="#eed5c7" fill-rule="evenodd" stop-color="#000000" stroke="#eed5c7" stroke-linecap="round" stroke-width="14.368" style="font-variation-settings:normal"/>
  <path d="m239.66 19.999 3.674 15.885" fill="#eed5c7" fill-rule="evenodd" stop-color="#000000" stroke="#eed5c7" stroke-linecap="round" stroke-width="14.368" style="font-variation-settings:normal"/>
  <path d="m224.3 51.025 14.79 6.8626" fill="#eed5c7" fill-rule="evenodd" stop-color="#000000" stroke="#eed5c7" stroke-linecap="round" stroke-width="14.368" style="font-variation-settings:normal"/>
  <path d="m243.7 37.591c4.9467 12.096 15.518 18.721 17.231-3.2353" fill="none" stop-color="#000000" stroke="#eed5c7" stroke-linecap="round" stroke-width="14.368" style="font-variation-settings:normal"/>
  <path d="m260.92 34.481c-2.94 21.524 15.538 16.852 16.321 5.026" fill="none" stop-color="#000000" stroke="#eed5c7" stroke-linecap="round" stroke-width="14.368" style="font-variation-settings:normal"/>
  <path d="m277.13 40.859c-1.9743 22.74 7.0652 26.165 11.614 12.556" fill="none" stop-color="#000000" stroke="#eed5c7" stroke-linecap="round" stroke-width="14.368" style="-inkscape-stroke:none;font-variation-settings:normal"/>
  <path transform="matrix(1.2067 0 0 1.2067 -33.216 23.725)" d="m225.66 28.31s11.025 6.8021 9.1544 15.087c-1.8709 8.2854 25.123 8.6863 25.123 8.6863s7.4311-14.865 9.4473-31.57l-9.1376 13.634z" clip-path="url(#icon_community_a)" fill="#eed5c7" fill-rule="evenodd" stop-color="#000000" stroke="#eed5c7" stroke-linecap="round" stroke-linejoin="round" stroke-width="11.906" style="font-variation-settings:normal"/>
 </g>
 <g class="bubbles">
  <circle transform="rotate(-21.916)" cx="28.325" cy="121.27" r="8.9372" fill="#ffb355" stop-color="#000000" style="font-variation-settings:normal;paint-order:normal"/>
  <circle transform="rotate(-21.916)" cx="11.026" cy="96.952" r="12.089" fill="#fc9819" stop-color="#000000" style="font-variation-settings:normal;paint-order:normal"/>
  <circle transform="rotate(-21.916)" cx="8.9165" cy="68.846" r="10.721" fill="#ffb355" stop-color="#000000" style="font-variation-settings:normal;paint-order:normal"/>
  <circle transform="rotate(-21.916)" cx="1.2541" cy="52.665" r="12.88" fill="#fc9819" stop-color="#000000" style="font-variation-settings:normal;paint-order:normal"/>
  <circle transform="rotate(-9.8773)" cx="48.293" cy="28.846" r="16.56" fill="#ffb355" stop-color="#000000" style="font-variation-settings:normal;paint-order:normal"/>
  <circle transform="rotate(-9.8773)" cx="54.23" cy="53.341" r="13.373" fill="#fc9819" stop-color="#000000" style="font-variation-settings:normal;paint-order:normal"/>
  <circle transform="rotate(-21.916)" cx="37.987" cy="88.555" r="9.8907" fill="#ffb355" stop-color="#000000" style="font-variation-settings:normal;paint-order:normal"/>
  <circle transform="rotate(8.1437)" cx="107.67" cy="51.237" r="11.564" fill="#faa7e4" stop-color="#000000" style="font-variation-settings:normal;paint-order:normal"/>
  <circle transform="rotate(8.1437)" cx="124.06" cy="60.392" r="13.251" fill="#f32dc5" stop-color="#000000" style="font-variation-settings:normal;paint-order:normal"/>
  <circle transform="rotate(8.1437)" cx="141.27" cy="-.48509" r="8.7781" fill="#faa7e4" stop-color="#000000" style="font-variation-settings:normal;paint-order:normal"/>
  <circle transform="rotate(8.1437)" cx="126.14" cy="14.962" r="16.383" fill="#f32dc5" stop-color="#000000" style="font-variation-settings:normal;paint-order:normal"/>
  <circle transform="rotate(8.1437)" cx="138.51" cy="40.155" r="8.1913" fill="#faa7e4" stop-color="#000000" style="font-variation-settings:normal;paint-order:normal"/>
  <circle transform="rotate(8.1437)" cx="96.683" cy="-1.8843" r="8.8203" fill="#faa7e4" stop-color="#000000" style="font-variation-settings:normal;paint-order:normal"/>
  <circle transform="rotate(8.1437)" cx="96.631" cy="25.06" r="10.388" fill="#f32dc5" stop-color="#000000" style="font-variation-settings:normal;paint-order:normal"/>
  <circle transform="rotate(8.1437)" cx="108.12" cy="94.843" r="11.508" fill="#faa7e4" stop-color="#000000" style="font-variation-settings:normal;paint-order:normal"/>
  <circle transform="rotate(8.1437)" cx="102.3" cy="77.116" r="10.941" fill="#f32dc5" stop-color="#000000" style="font-variation-settings:normal;paint-order:normal"/>
  <circle transform="rotate(-21.916)" cx="13.81" cy="27.968" r="10.269" fill="#fc9819" stop-color="#000000" style="font-variation-settings:normal;paint-order:normal"/>
 </g>
</svg>
