<svg width="592" height="592" version="1.1" viewBox="0 0 156.63 156.63" xmlns="http://www.w3.org/2000/svg">
 <circle class="circle" cx="78.317" cy="78.317" r="67.733" fill="#5967cf" stop-color="#000000" style="paint-order:markers stroke fill"/>
 <g class="bug">
  <path d="m106.96 93.742a30.355 30.355 0 0 1-37.178 21.465 30.355 30.355 0 0 1-21.465-37.178 30.355 30.355 0 0 1 37.178-21.465 30.355 30.355 0 0 1 21.465 37.178z" fill="#1a1a1a" stop-color="#000000" stroke-linecap="round" stroke-linejoin="round" stroke-width="52.921"/>
  <path d="m99.468 63.048a15.178 15.178 0 0 1-18.589 10.732 15.178 15.178 0 0 1-10.732-18.589 15.178 15.178 0 0 1 18.589-10.732 15.178 15.178 0 0 1 10.732 18.589z" fill="#1a1a1a" stop-color="#000000" stroke-linecap="round" stroke-linejoin="round" stroke-width="26.461"/>
  <path d="m85.559 56.546-5.5967-21.4" fill="none" stop-color="#000000" stroke="#1a1a1a" stroke-width="2.6458" style="font-variation-settings:normal"/>
  <path d="m85.543 56.65 15.702-15.579" fill="none" stop-color="#000000" stroke="#1a1a1a" stroke-width="2.6458" style="font-variation-settings:normal"/>
  <path class="wing-left" d="m60.386 115.71c-10.566-4.4849-17.936-14.266-19.335-25.659-1.3988-11.393 3.3865-22.666 12.553-29.574 9.1669-6.9078 21.852-8.4002 32.418-3.9153l-13.083 29.574z" fill="#e187ff" stop-color="#000000" stroke-linecap="round" stroke-linejoin="round" stroke-width="11.906"/>
  <path class="wing-right" d="m77.662 120.34c11.393 1.3988 22.666-3.3865 29.574-12.553 6.9078-9.1669 8.4003-21.323 3.9154-31.888-4.4849-10.566-14.266-17.936-25.658-19.335l-3.9155 31.888z" fill="#e187ff" stop-color="#000000" stroke-linecap="round" stroke-linejoin="round" stroke-width="11.906"/>
  <path d="m81.967 35.146a2.0045 2.0045 0 0 1-2.0045 2.0045 2.0045 2.0045 0 0 1-2.0045-2.0045 2.0045 2.0045 0 0 1 2.0045-2.0045 2.0045 2.0045 0 0 1 2.0045 2.0045z" fill="#1a1a1a" stop-color="#000000" stroke="#1a1a1a" stroke-linecap="round" stroke-linejoin="round" stroke-width="2.6458"/>
  <path d="m103.25 41.071a2.0045 2.0045 0 0 1-2.0045 2.0045 2.0045 2.0045 0 0 1-2.0045-2.0045 2.0045 2.0045 0 0 1 2.0045-2.0045 2.0045 2.0045 0 0 1 2.0045 2.0045z" fill="#1a1a1a" stop-color="#000000" stroke="#1a1a1a" stroke-linecap="round" stroke-linejoin="round" stroke-width="2.6458"/>
 </g>
</svg>
