<svg width="592" height="592" version="1.1" viewBox="0 0 156.63 156.63" xmlns="http://www.w3.org/2000/svg">
 <defs>
  <clipPath id="icon_help_a">
   <circle cx="244.65" cy="-6.6885" r="55.94" fill="#5d4cac" stop-color="#000000" stroke-width=".52917" style="paint-order:markers stroke fill"/>
  </clipPath>
 </defs>
 <ellipse cx="78.45" cy="78.317" rx="67.733" ry="67.733" fill="#45339b" stop-color="#000000" stroke-width=".52917" style="paint-order:markers stroke fill"/>
 <path transform="matrix(1.2108 0 0 1.2108 -218.04 86.415)" d="m231.81-24.453c-5.6615-0.34513-17.124 22.187-20.199 26.953-2.6651 4.215-5.3676 8.4055-8.0972 12.578-0.99444 1.5201-1.9925 3.0378-2.9937 4.5534-8.5755 12.982-17.38 25.813-26.106 38.695-4.9169 7.2595-3.0176 17.13 4.2422 22.047 7.2595 4.9169 17.13 3.0176 22.047-4.2422 12.81-18.633 25.339-37.432 37.588-56.418 4.8632-16.759 6.4306-43.378-6.4802-44.165z" clip-path="url(#icon_help_a)" color="#000000" fill="#eed5c7" fill-rule="evenodd" stroke-linecap="round" stroke-linejoin="round" stroke-width=".82589" style="-inkscape-stroke:none"/>
 <path d="m37.253 99.327c1.1679 8.784 6.4782 17.966 18.361 17.183m27.832-52.152-10.8 6.2356m5.9587-24.305 4.8416 18.069m-28.934-11.614 24.092-6.4556m-41.351 53.039c-0.52895-5.3878 3.2275-15.159 7.7418-25.404 3.2122-7.2897 6.8082-14.819 9.517-21.179" fill="#eed5c7" fill-rule="evenodd" stop-color="#000000" stroke="#eed5c7" stroke-linecap="round" stroke-width="15.875" style="-inkscape-stroke:none;font-variation-settings:normal"/>
 <path d="m66.161 58.161c-6.7423-0.4615-13.959 16.476-13.959 16.476-1.8162 8.3689-1.155 13.902 8.009 15.56l12.586-16.476s-0.81164-15.162-6.636-15.56z" fill="#e8c7b3" fill-rule="evenodd" stop-color="#000000" style="-inkscape-stroke:none;font-variation-settings:normal"/>
 <rect x="61.922" y="30.76" width="94.049" height="59.038" rx="5" ry="5" fill="#a7ebff" stop-color="#000000" style="paint-order:normal"/>
 <path class="question" d="m93.258 52.519q0.0678-7.7934 4.3372-12.131 4.2694-4.3372 11.859-4.3372 7.1835 0 11.182 3.1851 3.9983 3.1174 3.9983 8.8777 0 3.5917-1.6264 5.9636-1.6264 2.3041-4.7438 5.0826-2.643 2.3719-3.9306 4.1339-1.2876 1.6942-1.2876 4.0661h-10.165q0-3.9306 1.4231-6.2347 1.4231-2.3719 3.9983-4.8116 1.8298-1.762 2.643-2.9818 0.88099-1.2876 0.88099-2.9818 0-1.8297-0.88099-2.643-0.881-0.88099-2.7785-0.88099-2.1686 0-3.2529 1.4231-1.0843 1.3554-1.152 4.2694zm14.435 19.246q2.8463 0 4.6083 1.762 1.8297 1.762 1.8297 4.5405 0 2.8463-1.8297 4.676-1.762 1.762-4.6083 1.762-2.7785 0-4.6082-1.762-1.762-1.8297-1.762-4.676 0-2.7785 1.762-4.5405 1.8297-1.762 4.6082-1.762z" fill="#1ccdff" stroke-width=".26458px"/>
 <path d="m60.851 104.15 12.139-15.944 15.457-11.138" fill="none" stop-color="#000000" stroke="#eed5c7" stroke-linecap="round" stroke-width="15.875" style="font-variation-settings:normal"/>
 <ellipse transform="matrix(.87559 -.48306 .29045 .95689 0 0)" cx="27.725" cy="128.23" rx="17.735" ry="14.516" fill="#eed5c7" stop-color="#000000" style="font-variation-settings:normal;paint-order:normal"/>
 <path class="exclamation" d="m107.1 41.581 9.8805 1.876-1.7783 9.3659-4.4099 13.398-6.2268-1.1823 0.75618-14.092zm-0.33658 27.607q2.1614 0.41037 3.2453 2.0024 1.1354 1.6018 0.73481 3.7117-0.41037 2.1614-2.0636 3.287-1.592 1.0839-3.7534 0.67358-2.1099-0.4006-3.2453-2.0024-1.0742-1.6435-0.66381-3.8049 0.4006-2.1099 1.9926-3.1938 1.6435-1.0742 3.7534-0.67358z" fill="#1ccdff" fill-opacity=".01" stroke-width=".26458px"/>
</svg>
